<svg width="21" height="21" viewBox="0 0 21 21" fill="none" xmlns="http://www.w3.org/2000/svg">
<path d="M17.5408 6.55522H12.0723C10.5593 6.55522 9.33796 7.77822 9.33796 9.29328V15.6821C9.33796 17.1971 10.5593 18.4201 12.0723 18.4201L11.1608 19.3328V20.2455H12.0723L13.8951 18.3928H15.718L17.5408 20.2455H18.4523V19.3328L17.5408 18.4201C19.0538 18.4201 20.2751 17.1971 20.2751 15.6821V9.29328C20.2751 7.77822 19.0538 6.55522 17.5408 6.55522ZM12.0723 16.5948C11.571 16.5948 11.1608 16.1841 11.1608 15.6821C11.1608 15.1801 11.571 14.7694 12.0723 14.7694C12.5735 14.7694 12.9837 15.1801 12.9837 15.6821C12.9837 16.1841 12.5735 16.5948 12.0723 16.5948ZM17.5408 16.5948C17.0396 16.5948 16.6294 16.1841 16.6294 15.6821C16.6294 15.1801 17.0396 14.7694 17.5408 14.7694C18.0421 14.7694 18.4523 15.1801 18.4523 15.6821C18.4523 16.1841 18.0421 16.5948 17.5408 16.5948ZM18.4523 13.8567H11.1608V8.38059H18.4523V13.8567ZM5.38234 12.5151L5.69223 14.7694L4.73522 15.7368L3.1311 12.8345L0.223633 11.219L1.18975 10.2333L3.46833 10.571L6.99558 7.03894L0.223633 3.47034L1.51787 2.18345L9.89393 4.11835L13.4394 0.567998C13.9498 0.0340764 14.8612 0.0340764 15.3716 0.567998C15.9094 1.10648 15.9094 1.99179 15.3716 2.50289L12.2363 5.64253H12.0723C10.058 5.64253 8.42653 7.27624 8.42653 9.29328V9.46669L5.38234 12.5151Z" fill="black"/>
</svg>
