<svg width="22" height="22" viewBox="0 0 22 22" fill="none" xmlns="http://www.w3.org/2000/svg">
<path d="M18.1062 13.2051C18.2997 13.4841 18.5772 13.6939 18.8982 13.8038C19.2192 13.9137 19.5669 13.918 19.8906 13.8161C20.2142 13.7142 20.4968 13.5114 20.6972 13.2373C20.8976 12.9632 21.0053 12.6321 21.0045 12.2924C21.0053 11.9527 20.8976 11.6216 20.6972 11.3475C20.4968 11.0733 20.2142 10.8705 19.8906 10.7686C19.5669 10.6667 19.2192 10.671 18.8982 10.781C18.5772 10.8909 18.2997 11.1007 18.1062 11.3797H17.3588C17.3588 9.94677 16.9031 8.64163 16.0828 7.55553L17.3041 6.33253C17.8145 6.4238 18.334 6.27777 18.726 5.90357C19.3366 5.27381 19.3366 4.26073 18.726 3.62185C18.0971 3.01035 17.0854 3.01035 16.4474 3.62185C16.0737 4.01431 15.9279 4.53454 16.019 5.04564L14.7977 6.26864C13.9592 5.63889 12.9748 5.21905 11.8902 5.0639V3.78614C12.1688 3.59233 12.3783 3.31443 12.4881 2.99298C12.5979 2.67154 12.6022 2.32338 12.5004 1.9993C12.3987 1.67523 12.1961 1.3922 11.9224 1.19153C11.6486 0.99085 11.318 0.883028 10.9788 0.883793C10.6395 0.883028 10.3089 0.99085 10.0352 1.19153C9.76142 1.3922 9.55889 1.67523 9.45712 1.9993C9.35535 2.32338 9.35967 2.67154 9.46944 2.99298C9.57922 3.31443 9.78871 3.59233 10.0673 3.78614V5.0639C9.24705 5.18255 8.48145 5.44722 7.78876 5.84881L6.77707 4.39764C6.95024 3.92304 6.90467 3.37543 6.59478 2.93734C6.47465 2.76516 6.32177 2.6184 6.14492 2.50546C5.96807 2.39252 5.7707 2.31563 5.56413 2.27917C5.35756 2.24272 5.14584 2.24742 4.94108 2.29302C4.73633 2.33861 4.54257 2.4242 4.37089 2.54488C3.65086 3.04686 3.46857 4.04169 3.97897 4.76271C4.28886 5.20993 4.78103 5.44722 5.28232 5.44722L6.35781 6.98054C5.9659 7.37299 5.65601 7.81108 5.39169 8.29481C5.10437 8.1824 4.79078 8.15533 4.48849 8.21684C4.1862 8.27835 3.90803 8.42584 3.68731 8.64163C3.07666 9.28051 3.07666 10.2845 3.68731 10.9233C3.95163 11.1698 4.27063 11.3158 4.59875 11.3797C4.59875 11.8725 4.66255 12.3471 4.7628 12.8035L3.56883 13.1229C3.18603 12.8035 2.6574 12.6666 2.12877 12.8035C1.72025 12.9148 1.37263 13.1841 1.16239 13.5521C0.952152 13.9201 0.896509 14.3567 1.0077 14.7658C1.1189 15.1748 1.38782 15.5229 1.75531 15.7335C2.12281 15.944 2.55876 15.9997 2.96728 15.8884C3.4868 15.7423 3.87872 15.359 4.04277 14.8844L5.41904 14.5102C5.82918 15.2312 6.37604 15.8701 7.01404 16.3995L6.01147 18.2248C5.51018 18.2978 5.05446 18.5808 4.79015 19.0645C4.6908 19.2491 4.62874 19.4514 4.6075 19.66C4.58625 19.8686 4.60625 20.0794 4.66634 20.2802C4.72643 20.4811 4.82544 20.6681 4.95771 20.8307C5.08999 20.9932 5.25294 21.1281 5.43726 21.2276C5.62159 21.3271 5.82368 21.3892 6.03199 21.4105C6.2403 21.4317 6.45075 21.4117 6.65133 21.3516C6.85192 21.2914 7.0387 21.1922 7.20102 21.0598C7.36334 20.9273 7.49802 20.7641 7.59736 20.5796C7.85256 20.105 7.84345 19.5574 7.61559 19.1101L8.59082 17.3121C9.32908 17.6042 10.1311 17.7685 10.9788 17.7685H11.1428C11.0243 18.0058 10.9788 18.2796 10.9788 18.5717C11.0517 19.457 11.8173 20.1141 12.6923 20.0502C13.5672 19.9863 14.2326 19.2105 14.1688 18.3344C14.1323 17.878 13.9045 17.4764 13.5764 17.2118C14.0047 17.0201 14.4149 16.7737 14.7977 16.4907L16.9304 18.6264C16.8393 19.1375 16.9851 19.6578 17.3588 20.0502C17.9968 20.6617 18.9994 20.6617 19.6374 20.0502C20.2754 19.4387 20.248 18.4074 19.6374 17.7685C19.2455 17.3943 18.726 17.2483 18.2155 17.3395L16.0828 15.2038C16.5294 14.6106 16.8757 13.9352 17.0945 13.2051H18.1062ZM9.61163 11.3797C8.85514 11.3797 8.24448 10.7682 8.24448 10.0107C8.24448 9.25313 8.85514 8.64163 9.61163 8.64163C10.3681 8.64163 10.9788 9.25313 10.9788 10.0107C10.9788 10.7682 10.3681 11.3797 9.61163 11.3797ZM12.8016 14.1177C12.3004 14.1177 11.8902 13.707 11.8902 13.2051C11.8902 12.7031 12.3004 12.2924 12.8016 12.2924C13.3029 12.2924 13.7131 12.7031 13.7131 13.2051C13.7131 13.707 13.3029 14.1177 12.8016 14.1177Z" fill="black"/>
</svg>
