<svg width="26" height="29" viewBox="0 0 26 29" fill="none" xmlns="http://www.w3.org/2000/svg">
<path d="M12.9995 11.0282V12.6621H23.2971C23.4227 12.6623 23.5466 12.6932 23.6589 12.7523C23.7712 12.8114 23.869 12.8971 23.9446 13.0027C24.0202 13.1083 24.0715 13.2309 24.0945 13.3609C24.1175 13.4909 24.1115 13.6247 24.0771 13.7519L22.1353 20.9154C21.8442 21.988 21.2292 22.9317 20.3833 23.6034C19.5374 24.2752 18.5067 24.6385 17.4471 24.6383H8.55188C7.49234 24.6385 6.4616 24.2752 5.61569 23.6034C4.76979 22.9317 4.15478 21.988 3.86376 20.9154L1.92026 13.7519C1.88584 13.6247 1.8799 13.4909 1.90289 13.3609C1.92588 13.2309 1.97718 13.1083 2.05276 13.0027C2.12834 12.8971 2.22615 12.8114 2.33849 12.7523C2.45084 12.6932 2.57467 12.6623 2.70026 12.6621H11.3745V3.83727C11.3744 3.68872 11.411 3.5427 11.4808 3.41359C11.5506 3.28448 11.6511 3.17672 11.7725 3.10092C11.8938 3.02513 12.0318 2.98391 12.1729 2.98133C12.3139 2.97875 12.4532 3.01489 12.577 3.08619L12.9296 3.28979L12.9995 3.25215V3.32914L18.882 6.70815C19.0145 6.78421 19.1243 6.89764 19.199 7.03571C19.2738 7.17378 19.3105 7.33103 19.3051 7.48985C19.2997 7.64866 19.2524 7.80275 19.1685 7.93484C19.0846 8.06693 18.9674 8.1718 18.83 8.23769L12.9995 11.0282ZM12.9995 9.1496L16.6753 7.3908L12.9995 5.27956V9.1496ZM12.9995 14.373H3.77926L4.24238 16.0838H21.7583L22.2214 14.373H12.9995ZM4.70713 17.7947L5.42701 20.4466C5.62119 21.1614 6.0312 21.7902 6.59501 22.2378C7.15882 22.6854 7.84575 22.9275 8.55188 22.9274H17.4471C18.1533 22.9275 18.8402 22.6854 19.404 22.2378C19.9678 21.7902 20.3778 21.1614 20.572 20.4466L21.2919 17.7947H4.70713Z" fill="#D27C2C"/>
</svg>
