<svg width="26" height="29" viewBox="0 0 26 29" fill="none" xmlns="http://www.w3.org/2000/svg">
<path fill-rule="evenodd" clip-rule="evenodd" d="M5.01795 4.10754C4.8132 4.10754 4.63066 4.25696 4.56024 4.48166L3.31007 8.48002C3.2706 8.60646 3.25049 8.73871 3.25049 8.87181V10.4624C3.25049 11.3617 3.87395 12.0917 4.64311 12.0917C5.41228 12.0917 6.03628 11.3617 6.03628 10.4624C6.03628 11.3623 6.65974 12.0917 7.42891 12.0917C8.19807 12.0917 8.82207 11.3617 8.82207 10.4624C8.82207 11.3623 9.44553 12.0917 10.2147 12.0917C10.9839 12.0917 11.6068 11.3629 11.6079 10.4635C11.6079 11.3629 12.2313 12.0917 13.0005 12.0917C13.7697 12.0917 14.3931 11.3617 14.3931 10.4624C14.3931 11.3623 15.0171 12.0917 15.7863 12.0917C16.5554 12.0917 17.1784 11.3629 17.1789 10.4635C17.1794 11.3629 17.8029 12.0917 18.5721 12.0917C19.3412 12.0917 19.9647 11.3617 19.9647 10.4624C19.9647 11.3623 20.5882 12.0917 21.3579 12.0917C22.127 12.0917 22.7505 11.3617 22.7505 10.4624V8.87181C22.7505 8.73871 22.7304 8.60646 22.6909 8.48002L21.4407 4.48223C21.3703 4.25696 21.1878 4.10754 20.983 4.10754H5.01795Z" fill="#D27C2C"/>
<path fill-rule="evenodd" clip-rule="evenodd" d="M5.41699 12.7931V17.2243H4.06283C3.991 17.2243 3.92211 17.2544 3.87132 17.3079C3.82053 17.3613 3.79199 17.4339 3.79199 17.5095V18.0798C3.79199 18.1554 3.82053 18.2279 3.87132 18.2814C3.92211 18.3349 3.991 18.3649 4.06283 18.3649H21.9378C22.0097 18.3649 22.0785 18.3349 22.1293 18.2814C22.1801 18.2279 22.2087 18.1554 22.2087 18.0798V17.5095C22.2087 17.4339 22.1801 17.3613 22.1293 17.3079C22.0785 17.2544 22.0097 17.2243 21.9378 17.2243H20.5837V12.7931C20.3569 12.698 20.1475 12.5624 19.9645 12.3922C19.8241 12.5226 19.668 12.633 19.5003 12.7207V17.2243H6.50033V12.7207C6.33261 12.633 6.17655 12.5226 6.03612 12.3922C5.85412 12.5604 5.64612 12.6973 5.41699 12.7931ZM19.5003 11.6771C19.5464 11.6286 19.5897 11.5767 19.6303 11.5214H19.5003V11.6771ZM20.2987 11.5214C20.3806 11.6331 20.4765 11.7326 20.5837 11.8173V11.5214H20.2987ZM5.41699 11.8173C5.52472 11.7333 5.62064 11.6336 5.70191 11.5214H5.41699V11.8173ZM6.37033 11.5214H6.50033V11.6771C6.4538 11.6282 6.41037 11.5762 6.37033 11.5214ZM4.60449 19.5055C4.53266 19.5055 4.46378 19.5356 4.41298 19.589C4.36219 19.6425 4.33366 19.7151 4.33366 19.7907V24.0679C4.33366 24.2192 4.39073 24.3642 4.49231 24.4712C4.59389 24.5781 4.73167 24.6382 4.87533 24.6382H21.1253C21.269 24.6382 21.4068 24.5781 21.5083 24.4712C21.6099 24.3642 21.667 24.2192 21.667 24.0679V19.7907C21.667 19.7151 21.6385 19.6425 21.5877 19.589C21.5369 19.5356 21.468 19.5055 21.3962 19.5055H4.60449Z" fill="#D27C2C"/>
<path d="M9.47982 15.5135H7.85482C7.70524 15.5135 7.58398 15.6412 7.58398 15.7987V16.9393C7.58398 17.0968 7.70524 17.2244 7.85482 17.2244H9.47982C9.6294 17.2244 9.75065 17.0968 9.75065 16.9393V15.7987C9.75065 15.6412 9.6294 15.5135 9.47982 15.5135Z" fill="#D27C2C"/>
<path d="M10.5628 16.0837H8.93783C8.78825 16.0837 8.66699 16.2114 8.66699 16.3689V16.9392C8.66699 17.0967 8.78825 17.2243 8.93783 17.2243H10.5628C10.7124 17.2243 10.8337 17.0967 10.8337 16.9392V16.3689C10.8337 16.2114 10.7124 16.0837 10.5628 16.0837Z" fill="#D27C2C"/>
<path d="M12.188 17.2244C12.6367 17.2244 13.0005 16.8414 13.0005 16.369C13.0005 15.8965 12.6367 15.5135 12.188 15.5135C11.7393 15.5135 11.3755 15.8965 11.3755 16.369C11.3755 16.8414 11.7393 17.2244 12.188 17.2244Z" fill="#D27C2C"/>
</svg>
