<svg width="20" height="22" viewBox="0 0 20 22" fill="none" xmlns="http://www.w3.org/2000/svg">
<path d="M2.5 9.7104C2.06667 9.7104 1.70833 9.5534 1.425 9.23939C1.14167 8.92538 1 8.52825 1 8.048C1 7.56775 1.14167 7.17062 1.425 6.85661C1.70833 6.5426 2.06667 6.38559 2.5 6.38559C2.93333 6.38559 3.29167 6.5426 3.575 6.85661C3.85833 7.17062 4 7.56775 4 8.048C4 8.52825 3.85833 8.92538 3.575 9.23939C3.29167 9.5534 2.93333 9.7104 2.5 9.7104ZM2 21.9014C1.71667 21.9014 1.47933 21.795 1.288 21.5822C1.096 21.3701 1 21.1071 1 20.7931V16.36H0.5C0.366667 16.36 0.25 16.3046 0.15 16.1938C0.0500001 16.083 0 15.9537 0 15.8059V11.9269C0 11.6129 0.0960001 11.3495 0.288 11.1367C0.479333 10.9247 0.716667 10.8187 1 10.8187H4C4.28333 10.8187 4.521 10.9247 4.713 11.1367C4.90433 11.3495 5 11.6129 5 11.9269V15.8059C5 15.9537 4.95 16.083 4.85 16.1938C4.75 16.3046 4.63333 16.36 4.5 16.36H4V19.6848H12V14.1435H10.25C9.06667 14.1435 8.06267 13.6861 7.238 12.7714C6.41267 11.8575 6 10.7448 6 9.43334C6 8.45436 6.23767 7.58142 6.713 6.81449C7.18767 6.04831 7.8 5.4805 8.55 5.11108C8.73333 3.91045 9.23733 2.89897 10.062 2.07664C10.8873 1.25504 11.8667 0.844238 13 0.844238C14.1333 0.844238 15.1127 1.25504 15.938 2.07664C16.7627 2.89897 17.2667 3.91045 17.45 5.11108C18.2 5.4805 18.8127 6.04831 19.288 6.81449C19.7627 7.58142 20 8.45436 20 9.43334C20 10.7448 19.5877 11.8575 18.763 12.7714C17.9377 13.6861 16.9333 14.1435 15.75 14.1435H14V19.6848H18C18.2833 19.6848 18.5207 19.7912 18.712 20.004C18.904 20.2161 19 20.4791 19 20.7931C19 21.1071 18.904 21.3701 18.712 21.5822C18.5207 21.795 18.2833 21.9014 18 21.9014H2Z" fill="#D27C2C"/>
</svg>
